<svg id="Слой_1" data-name="Слой 1" xmlns="http://www.w3.org/2000/svg" width="6.13in" height="11.55in" viewBox="0 0 441.71 831.93"><defs><style>.cls-1{fill:#c7a787;}.cls-2{fill:#132521;}.cls-3{fill:#f3eee8;}</style></defs><title>Christmas tree 1</title><path class="cls-1" d="M171.6,698.2s-4.3,100,0,130.1c9.8,4.9,80.6,4.9,88,0,4.1-11.4,0-131.2,0-131.2-29.1.4-59.1.7-87.9.9Z" transform="translate(-0.03 -0.05)"/><path class="cls-2" d="M437.9,679.4c-5.8-8.3-58.3-84.9-114-159.7l70.3,9a7.14,7.14,0,0,0,7.2-10.4c-33.1-63.7-97.8-188.2-138.8-267.2l55.7-6.2a4.6,4.6,0,0,0,3.6-6.6C288.8,172.3,217.5,36.4,200.7,3a5.47,5.47,0,0,0-9.9.4c-16.3,39-79,192.8-106.4,260.9a5.35,5.35,0,0,0,6,7.2l47.3-5.6c-28,63.7-61,140-88.5,208.2a8.27,8.27,0,0,0,6.6,11.3l63.2,8.1h.1C65.1,576.1,9,670.8,3.1,681.3c-8.9,15.8,3.7,13.8,10.9,14.5,24.8,2.4,87.7,2.7,157.8,2.2,28.8-.2,58.8-.5,87.9-.9,72.9-1,140-2.3,167.5-2.7C434.9,694.3,448.4,694.4,437.9,679.4Z" transform="translate(-0.03 -0.05)"/><path class="cls-3" d="M177.1,191.7c-4.1-32.5-50.6-20.2-43.9,9S181.9,229.3,177.1,191.7Z" transform="translate(-0.03 -0.05)"/><path class="cls-3" d="M139,427.1c-4.3-33.7-52.6-21-45.6,9.4S143.9,466.2,139,427.1Z" transform="translate(-0.03 -0.05)"/><path class="cls-3" d="M313.6,637.6c-4-31.4-49-19.6-42.5,8.7S318.2,674,313.6,637.6Z" transform="translate(-0.03 -0.05)"/><path class="cls-3" d="M241.7,107.5c-4.4-35.1-54.7-21.8-47.4,9.8S246.9,148.2,241.7,107.5Z" transform="translate(-0.03 -0.05)"/><path class="cls-3" d="M217.1,567.3c9.7-28.8-40.8-41.7-46.6-14.3S205.9,600.6,217.1,567.3Z" transform="translate(-0.03 -0.05)"/><path class="cls-3" d="M324,465.8c12-33-37.5-43.5-45.4-12.3S310.1,504.1,324,465.8Z" transform="translate(-0.03 -0.05)"/><path class="cls-3" d="M90.8,653.3c12-33-37.5-43.5-45.4-12.3S76.9,691.6,90.8,653.3Z" transform="translate(-0.03 -0.05)"/><path class="cls-3" d="M269,335c11.1-32.3-43.6-45.8-50.4-15S256.1,372.4,269,335Z" transform="translate(-0.03 -0.05)"/></svg>